<svg width="51" height="50" viewBox="0 0 51 50" fill="none" xmlns="http://www.w3.org/2000/svg">
<g clip-path="url(#clip0_165_179)">
<path fill-rule="evenodd" clip-rule="evenodd" d="M0.767578 25.1396C0.767578 37.5687 9.81275 47.9042 21.6427 50V31.9437H15.3801V25H21.6427V19.4438C21.6427 13.1937 25.6778 9.72292 31.3851 9.72292C33.1928 9.72292 35.1426 10 36.9504 10.2771V16.6667H33.7502C30.6878 16.6667 29.9927 18.1937 29.9927 20.1396V25H36.6727L35.5601 31.9437H29.9927V50C41.8226 47.9042 50.8678 37.5708 50.8678 25.1396C50.8678 11.3125 39.5952 0 25.8177 0C12.0401 0 0.767578 11.3125 0.767578 25.1396Z" fill="#EA71BE"/>
</g>
<defs>
<clipPath id="clip0_165_179">
<rect width="50.1002" height="50" fill="white" transform="translate(0.767578)"/>
</clipPath>
</defs>
</svg>
