<svg width="76" height="50" viewBox="0 0 76 50" fill="none" xmlns="http://www.w3.org/2000/svg">
<g clip-path="url(#clip0_165_225)">
<path d="M74.5852 43.9806L43.8272 24.5618L73.4475 5.74262C74.4238 5.16605 74.9158 4.44342 74.9158 3.57472C74.9158 3.14422 74.8159 2.71371 74.616 2.29859C74.4161 1.88346 74.147 1.50677 73.8011 1.16082C73.4552 0.814883 73.0631 0.53813 72.6095 0.322878C72.156 0.107626 71.6947 0 71.2258 0C70.6492 0 70.1034 0.184502 69.596 0.545818L36.1781 22.1248C35.6707 22.417 35.3248 22.7937 35.148 23.2626C34.9635 23.7316 34.8789 24.2774 34.8789 24.8924C34.8789 25.9763 35.3094 26.7758 36.1781 27.2755L71.3795 49.4081C71.81 49.7002 72.3174 49.8386 72.9017 49.8386C73.7319 49.8386 74.4546 49.4849 75.0696 48.7777C75.6846 48.0704 75.9921 47.3093 75.9921 46.4714C75.9536 46.0409 75.8383 45.5873 75.6384 45.1184C75.4386 44.6494 75.0849 44.2728 74.5776 43.9806H74.5852Z" fill="#EC008C"/>
<path d="M3.69004 0.0999451C1.23001 0.0999451 0 1.1147 0 3.13654V46.9096C0 48.9699 1.21464 50 3.63622 50C6.05781 50 7.16482 48.9699 7.16482 46.9096V3.13654C7.16482 1.1147 6.004 0.0999451 3.69004 0.0999451Z" fill="#EC008C"/>
<path d="M49.2542 43.9806L18.4962 24.5618L48.1164 5.74262C49.0927 5.16605 49.5848 4.44342 49.5848 3.57472C49.5848 3.14422 49.4848 2.71371 49.2849 2.29859C49.0851 1.88346 48.816 1.50677 48.4701 1.16082C48.1241 0.814883 47.732 0.53813 47.2785 0.322878C46.8249 0.107626 46.3637 0 45.8947 0C45.3181 0 44.7723 0.184502 44.265 0.545818L10.8471 22.1248C10.3397 22.417 9.99373 22.7937 9.81692 23.2626C9.63242 23.7316 9.54785 24.2774 9.54785 24.8924C9.54785 25.9763 9.97836 26.7758 10.8471 27.2755L46.0485 49.4081C46.479 49.7002 46.9864 49.8386 47.5706 49.8386C48.4009 49.8386 49.1235 49.4849 49.7385 48.7777C50.3535 48.0704 50.661 47.3093 50.661 46.4714C50.6226 46.0409 50.5073 45.5873 50.3074 45.1184C50.1075 44.6494 49.7539 44.2728 49.2465 43.9806H49.2542Z" fill="#EC008C"/>
</g>
<defs>
<clipPath id="clip0_165_225">
<rect width="75.9917" height="50" fill="white"/>
</clipPath>
</defs>
</svg>
