<svg width="51" height="50" viewBox="0 0 51 50" fill="none" xmlns="http://www.w3.org/2000/svg">
<g clip-path="url(#clip0_165_173)">
<path d="M50.1275 10.2854C48.3844 11.0562 46.5119 11.577 44.5434 11.8125C46.5745 10.5995 48.0941 8.69051 48.8186 6.44162C46.9103 7.57285 44.8218 8.36911 42.6438 8.79579C41.1791 7.23509 39.2392 6.20064 37.1251 5.85303C35.011 5.50542 32.841 5.86411 30.9521 6.8734C29.0632 7.88269 27.561 9.48613 26.6788 11.4348C25.7966 13.3834 25.5837 15.5682 26.0731 17.65C22.2064 17.4562 18.4237 16.4532 14.9706 14.706C11.5174 12.9588 8.47092 10.5065 6.02887 7.50829C5.19386 8.94579 4.71374 10.6125 4.71374 12.3875C4.7128 13.9854 5.10709 15.5588 5.86161 16.9682C6.61613 18.3775 7.70756 19.5792 9.03905 20.4666C7.49487 20.4176 5.98476 20.0012 4.63441 19.252V19.377C4.63426 21.6182 5.41103 23.7903 6.83294 25.525C8.25485 27.2596 10.2343 28.4498 12.4354 28.8937C11.0029 29.2806 9.5011 29.3376 8.04331 29.0604C8.66434 30.9887 9.87405 32.675 11.5031 33.8831C13.1321 35.0913 15.0989 35.7607 17.1281 35.7979C13.6834 38.4967 9.42918 39.9606 5.04982 39.9541C4.27407 39.9543 3.49897 39.9091 2.72852 39.8187C7.17381 42.6712 12.3485 44.185 17.6333 44.1791C35.5233 44.1791 45.3032 29.3916 45.3032 16.5666C45.3032 16.15 45.2928 15.7291 45.274 15.3125C47.1764 13.9395 48.8184 12.2393 50.1233 10.2916L50.1275 10.2854Z" fill="#EA71BE"/>
</g>
<defs>
<clipPath id="clip0_165_173">
<rect width="50.1002" height="50" fill="white" transform="translate(0.772461)"/>
</clipPath>
</defs>
</svg>
