<svg width="51" height="50" viewBox="0 0 51 50" fill="none" xmlns="http://www.w3.org/2000/svg">
<g clip-path="url(#clip0_165_175)">
<path d="M49.8243 13.5562C49.5407 12.5463 48.9881 11.632 48.2253 10.9104C47.441 10.1667 46.4797 9.63465 45.4322 9.36458C41.5119 8.33333 25.8055 8.33333 25.8055 8.33333C19.2576 8.25898 12.7114 8.58598 6.20376 9.3125C5.15623 9.60252 4.19675 10.1464 3.41068 10.8958C2.6383 11.6375 2.07885 12.5521 1.78659 13.5542C1.08455 17.3286 0.743449 21.1611 0.76789 25C0.74284 28.8354 1.0831 32.6667 1.78659 36.4458C2.07258 37.4437 2.62995 38.3542 3.40441 39.0896C4.17888 39.825 5.14331 40.3562 6.20376 40.6375C10.1763 41.6667 25.8055 41.6667 25.8055 41.6667C32.3616 41.7411 38.9162 41.4141 45.4322 40.6875C46.4797 40.4174 47.441 39.8854 48.2253 39.1417C48.9878 38.4203 49.5397 37.5058 49.8223 36.4958C50.5426 32.7228 50.8929 28.8887 50.8681 25.0479C50.9223 21.1908 50.5725 17.3387 49.8243 13.5542V13.5562ZM20.8121 32.1333V17.8687L33.8799 25.0021L20.8121 32.1333Z" fill="#EA71BE"/>
</g>
<defs>
<clipPath id="clip0_165_175">
<rect width="50.1002" height="50" fill="white" transform="translate(0.767578)"/>
</clipPath>
</defs>
</svg>
